<mxfile host="app.diagrams.net" agent="Mozilla/5.0 (Windows NT 10.0; Win64; x64) AppleWebKit/537.36 (KHTML, like Gecko) Chrome/137.0.0.0 Safari/537.36" version="28.0.6">
  <diagram id="py63ajqDq99WFU23Te7a" name="Page-1">
    <mxGraphModel dx="601" dy="292" grid="1" gridSize="10" guides="1" tooltips="1" connect="1" arrows="1" fold="1" page="1" pageScale="1" pageWidth="850" pageHeight="1100" math="0" shadow="0">
      <root>
        <mxCell id="0" />
        <mxCell id="1" parent="0" />
        <mxCell id="RW8DqHCZGsKvPGLtk2YZ-28" value="" style="rounded=0;whiteSpace=wrap;html=1;fillColor=#d0cee2;strokeColor=#56517e;" parent="1" vertex="1">
          <mxGeometry x="735" y="1010" width="290" height="170" as="geometry" />
        </mxCell>
        <mxCell id="kSdSB1FpIPM_VLZrApdW-1" value="" style="rounded=0;whiteSpace=wrap;html=1;fillColor=#bac8d3;strokeColor=#23445d;" parent="1" vertex="1">
          <mxGeometry x="540" y="470" width="460" height="260" as="geometry" />
        </mxCell>
        <mxCell id="kSdSB1FpIPM_VLZrApdW-2" value="Website" style="text;html=1;align=center;verticalAlign=middle;whiteSpace=wrap;rounded=0;" parent="1" vertex="1">
          <mxGeometry x="560" y="470" width="60" height="30" as="geometry" />
        </mxCell>
        <mxCell id="kSdSB1FpIPM_VLZrApdW-4" value="" style="rounded=0;whiteSpace=wrap;html=1;fillColor=#d0cee2;strokeColor=#56517e;" parent="1" vertex="1">
          <mxGeometry x="570" y="510" width="170" height="190" as="geometry" />
        </mxCell>
        <mxCell id="kSdSB1FpIPM_VLZrApdW-5" value="Home Page" style="text;html=1;align=center;verticalAlign=middle;whiteSpace=wrap;rounded=0;" parent="1" vertex="1">
          <mxGeometry x="580" y="510" width="90" height="30" as="geometry" />
        </mxCell>
        <mxCell id="kSdSB1FpIPM_VLZrApdW-8" style="edgeStyle=orthogonalEdgeStyle;rounded=0;orthogonalLoop=1;jettySize=auto;html=1;exitX=0.5;exitY=1;exitDx=0;exitDy=0;" parent="1" source="kSdSB1FpIPM_VLZrApdW-6" target="kSdSB1FpIPM_VLZrApdW-7" edge="1">
          <mxGeometry relative="1" as="geometry">
            <Array as="points">
              <mxPoint x="660" y="580" />
            </Array>
          </mxGeometry>
        </mxCell>
        <mxCell id="kSdSB1FpIPM_VLZrApdW-19" style="edgeStyle=orthogonalEdgeStyle;rounded=0;orthogonalLoop=1;jettySize=auto;html=1;exitX=1;exitY=0.5;exitDx=0;exitDy=0;entryX=0.003;entryY=0.291;entryDx=0;entryDy=0;entryPerimeter=0;" parent="1" source="kSdSB1FpIPM_VLZrApdW-6" target="kSdSB1FpIPM_VLZrApdW-17" edge="1">
          <mxGeometry relative="1" as="geometry" />
        </mxCell>
        <mxCell id="kSdSB1FpIPM_VLZrApdW-6" value="Login" style="rounded=1;whiteSpace=wrap;html=1;fillColor=#cce5ff;strokeColor=#36393d;" parent="1" vertex="1">
          <mxGeometry x="590" y="550" width="130" height="30" as="geometry" />
        </mxCell>
        <mxCell id="kSdSB1FpIPM_VLZrApdW-21" style="edgeStyle=orthogonalEdgeStyle;rounded=0;orthogonalLoop=1;jettySize=auto;html=1;exitX=0.464;exitY=0.01;exitDx=0;exitDy=0;exitPerimeter=0;" parent="1" source="kSdSB1FpIPM_VLZrApdW-7" edge="1">
          <mxGeometry relative="1" as="geometry">
            <mxPoint x="650" y="580" as="targetPoint" />
            <Array as="points" />
          </mxGeometry>
        </mxCell>
        <mxCell id="kSdSB1FpIPM_VLZrApdW-7" value="Sign up" style="rounded=1;whiteSpace=wrap;html=1;fillColor=#cce5ff;strokeColor=#36393d;" parent="1" vertex="1">
          <mxGeometry x="590" y="640" width="130" height="30" as="geometry" />
        </mxCell>
        <mxCell id="kSdSB1FpIPM_VLZrApdW-9" value="&lt;font style=&quot;font-size: 10px;&quot;&gt;New user&lt;/font&gt;" style="text;html=1;align=center;verticalAlign=middle;whiteSpace=wrap;rounded=0;" parent="1" vertex="1">
          <mxGeometry x="660" y="595" width="60" height="20" as="geometry" />
        </mxCell>
        <mxCell id="kSdSB1FpIPM_VLZrApdW-17" value="" style="rounded=0;whiteSpace=wrap;html=1;fillColor=#d0cee2;strokeColor=#56517e;" parent="1" vertex="1">
          <mxGeometry x="795" y="510" width="170" height="190" as="geometry" />
        </mxCell>
        <mxCell id="kSdSB1FpIPM_VLZrApdW-18" value="Chat Page" style="text;html=1;align=center;verticalAlign=middle;whiteSpace=wrap;rounded=0;" parent="1" vertex="1">
          <mxGeometry x="810" y="510" width="80" height="30" as="geometry" />
        </mxCell>
        <mxCell id="kSdSB1FpIPM_VLZrApdW-28" style="edgeStyle=orthogonalEdgeStyle;rounded=0;orthogonalLoop=1;jettySize=auto;html=1;exitX=0.5;exitY=1;exitDx=0;exitDy=0;entryX=0.5;entryY=0;entryDx=0;entryDy=0;" parent="1" source="kSdSB1FpIPM_VLZrApdW-20" target="kSdSB1FpIPM_VLZrApdW-29" edge="1">
          <mxGeometry relative="1" as="geometry">
            <mxPoint x="864.6666666666667" y="780" as="targetPoint" />
            <Array as="points" />
          </mxGeometry>
        </mxCell>
        <mxCell id="kSdSB1FpIPM_VLZrApdW-20" value="Chat Bot Interface" style="rounded=1;whiteSpace=wrap;html=1;fillColor=#cce5ff;strokeColor=#36393d;" parent="1" vertex="1">
          <mxGeometry x="825" y="550" width="110" height="30" as="geometry" />
        </mxCell>
        <mxCell id="kSdSB1FpIPM_VLZrApdW-22" value="&lt;font style=&quot;font-size: 10px;&quot;&gt;Registered&lt;/font&gt;" style="text;html=1;align=center;verticalAlign=middle;whiteSpace=wrap;rounded=0;" parent="1" vertex="1">
          <mxGeometry x="590" y="590" width="60" height="30" as="geometry" />
        </mxCell>
        <mxCell id="kSdSB1FpIPM_VLZrApdW-23" value="DataBase of Users" style="shape=cylinder3;whiteSpace=wrap;html=1;boundedLbl=1;backgroundOutline=1;size=15;fillColor=#fff2cc;strokeColor=#d6b656;" parent="1" vertex="1">
          <mxGeometry x="360" y="510" width="130" height="110" as="geometry" />
        </mxCell>
        <mxCell id="kSdSB1FpIPM_VLZrApdW-25" style="edgeStyle=orthogonalEdgeStyle;rounded=0;orthogonalLoop=1;jettySize=auto;html=1;exitX=0;exitY=0.5;exitDx=0;exitDy=0;entryX=1;entryY=0;entryDx=0;entryDy=75;entryPerimeter=0;" parent="1" source="kSdSB1FpIPM_VLZrApdW-7" target="kSdSB1FpIPM_VLZrApdW-23" edge="1">
          <mxGeometry relative="1" as="geometry">
            <Array as="points">
              <mxPoint x="530" y="655" />
              <mxPoint x="530" y="585" />
            </Array>
          </mxGeometry>
        </mxCell>
        <mxCell id="kSdSB1FpIPM_VLZrApdW-26" value="Authentication" style="text;html=1;align=center;verticalAlign=middle;whiteSpace=wrap;rounded=0;fontSize=10;" parent="1" vertex="1">
          <mxGeometry x="500" y="540" width="60" height="30" as="geometry" />
        </mxCell>
        <mxCell id="kSdSB1FpIPM_VLZrApdW-27" value="&lt;font style=&quot;font-size: 10px;&quot;&gt;Saving Credential&lt;/font&gt;" style="text;html=1;align=center;verticalAlign=middle;whiteSpace=wrap;rounded=0;rotation=90;" parent="1" vertex="1">
          <mxGeometry x="470" y="610" width="100" height="30" as="geometry" />
        </mxCell>
        <mxCell id="RW8DqHCZGsKvPGLtk2YZ-7" style="edgeStyle=orthogonalEdgeStyle;rounded=0;orthogonalLoop=1;jettySize=auto;html=1;exitX=0.5;exitY=1;exitDx=0;exitDy=0;" parent="1" source="kSdSB1FpIPM_VLZrApdW-29" target="RW8DqHCZGsKvPGLtk2YZ-6" edge="1">
          <mxGeometry relative="1" as="geometry" />
        </mxCell>
        <mxCell id="kSdSB1FpIPM_VLZrApdW-29" value="Condition Handler&lt;div&gt;(NLP/Embedding + Rule Based)&lt;/div&gt;" style="rounded=1;whiteSpace=wrap;html=1;fillColor=#cce5ff;strokeColor=#36393d;" parent="1" vertex="1">
          <mxGeometry x="780" y="780" width="200" height="60" as="geometry" />
        </mxCell>
        <mxCell id="kSdSB1FpIPM_VLZrApdW-30" value="Success" style="text;html=1;align=center;verticalAlign=middle;whiteSpace=wrap;rounded=0;" parent="1" vertex="1">
          <mxGeometry x="735" y="540" width="60" height="30" as="geometry" />
        </mxCell>
        <mxCell id="RW8DqHCZGsKvPGLtk2YZ-2" value="" style="endArrow=classic;startArrow=classic;html=1;rounded=0;entryX=0;entryY=0.5;entryDx=0;entryDy=0;exitX=1;exitY=0.5;exitDx=0;exitDy=0;exitPerimeter=0;" parent="1" source="kSdSB1FpIPM_VLZrApdW-23" target="kSdSB1FpIPM_VLZrApdW-6" edge="1">
          <mxGeometry width="50" height="50" relative="1" as="geometry">
            <mxPoint x="490" y="570" as="sourcePoint" />
            <mxPoint x="540" y="520" as="targetPoint" />
          </mxGeometry>
        </mxCell>
        <mxCell id="RW8DqHCZGsKvPGLtk2YZ-5" value="" style="endArrow=classic;startArrow=classic;html=1;rounded=0;entryX=0;entryY=0.5;entryDx=0;entryDy=0;exitX=0.875;exitY=0.5;exitDx=0;exitDy=0;exitPerimeter=0;" parent="1" source="RW8DqHCZGsKvPGLtk2YZ-29" target="kSdSB1FpIPM_VLZrApdW-29" edge="1">
          <mxGeometry width="50" height="50" relative="1" as="geometry">
            <mxPoint x="670" y="810" as="sourcePoint" />
            <mxPoint x="740" y="770" as="targetPoint" />
          </mxGeometry>
        </mxCell>
        <mxCell id="RW8DqHCZGsKvPGLtk2YZ-15" style="edgeStyle=orthogonalEdgeStyle;rounded=0;orthogonalLoop=1;jettySize=auto;html=1;exitX=0.5;exitY=1;exitDx=0;exitDy=0;entryX=0.48;entryY=0.005;entryDx=0;entryDy=0;entryPerimeter=0;" parent="1" source="RW8DqHCZGsKvPGLtk2YZ-6" edge="1">
          <mxGeometry relative="1" as="geometry">
            <mxPoint x="879.2" y="1010.9000000000001" as="targetPoint" />
            <Array as="points">
              <mxPoint x="880" y="1010" />
              <mxPoint x="879" y="1010" />
            </Array>
          </mxGeometry>
        </mxCell>
        <mxCell id="RW8DqHCZGsKvPGLtk2YZ-6" value="Metadata Mapper (Query -&amp;gt; Sensor Params)" style="rounded=1;whiteSpace=wrap;html=1;fillColor=#cce5ff;strokeColor=#36393d;" parent="1" vertex="1">
          <mxGeometry x="780" y="900" width="200" height="60" as="geometry" />
        </mxCell>
        <mxCell id="RW8DqHCZGsKvPGLtk2YZ-8" value="User Query" style="text;html=1;align=center;verticalAlign=middle;whiteSpace=wrap;rounded=0;" parent="1" vertex="1">
          <mxGeometry x="890" y="740" width="65" height="30" as="geometry" />
        </mxCell>
        <mxCell id="RW8DqHCZGsKvPGLtk2YZ-9" value="Data Storage&lt;div&gt;(Real Sensor Logs)&lt;/div&gt;" style="shape=cylinder3;whiteSpace=wrap;html=1;boundedLbl=1;backgroundOutline=1;size=15;fillColor=#fff2cc;strokeColor=#d6b656;" parent="1" vertex="1">
          <mxGeometry x="540" y="887.5" width="130" height="85" as="geometry" />
        </mxCell>
        <mxCell id="RW8DqHCZGsKvPGLtk2YZ-10" value="" style="endArrow=classic;startArrow=classic;html=1;rounded=0;entryX=0;entryY=0.5;entryDx=0;entryDy=0;exitX=1;exitY=0.5;exitDx=0;exitDy=0;exitPerimeter=0;" parent="1" source="RW8DqHCZGsKvPGLtk2YZ-9" target="RW8DqHCZGsKvPGLtk2YZ-6" edge="1">
          <mxGeometry width="50" height="50" relative="1" as="geometry">
            <mxPoint x="670" y="940" as="sourcePoint" />
            <mxPoint x="720" y="890" as="targetPoint" />
          </mxGeometry>
        </mxCell>
        <mxCell id="RW8DqHCZGsKvPGLtk2YZ-17" value="Data Storage&amp;nbsp;&lt;div&gt;(Generated Datasets)&lt;/div&gt;" style="shape=cylinder3;whiteSpace=wrap;html=1;boundedLbl=1;backgroundOutline=1;size=15;fillColor=#fff2cc;strokeColor=#d6b656;" parent="1" vertex="1">
          <mxGeometry x="535" y="1080" width="135" height="80" as="geometry" />
        </mxCell>
        <mxCell id="RW8DqHCZGsKvPGLtk2YZ-19" style="edgeStyle=orthogonalEdgeStyle;rounded=0;orthogonalLoop=1;jettySize=auto;html=1;entryX=1;entryY=0.5;entryDx=0;entryDy=0;entryPerimeter=0;" parent="1" target="RW8DqHCZGsKvPGLtk2YZ-17" edge="1">
          <mxGeometry relative="1" as="geometry">
            <mxPoint x="740" y="1120" as="sourcePoint" />
          </mxGeometry>
        </mxCell>
        <mxCell id="RW8DqHCZGsKvPGLtk2YZ-21" style="edgeStyle=orthogonalEdgeStyle;rounded=0;orthogonalLoop=1;jettySize=auto;html=1;exitX=0;exitY=0.5;exitDx=0;exitDy=0;entryX=1;entryY=0.5;entryDx=0;entryDy=0;" parent="1" source="RW8DqHCZGsKvPGLtk2YZ-20" target="RW8DqHCZGsKvPGLtk2YZ-14" edge="1">
          <mxGeometry relative="1" as="geometry" />
        </mxCell>
        <mxCell id="RW8DqHCZGsKvPGLtk2YZ-20" value="Statistical and Probability Models to fine tune" style="rounded=1;whiteSpace=wrap;html=1;fillColor=#cce5ff;strokeColor=#36393d;" parent="1" vertex="1">
          <mxGeometry x="1070" y="1090" width="150" height="60" as="geometry" />
        </mxCell>
        <mxCell id="RW8DqHCZGsKvPGLtk2YZ-24" value="" style="shape=image;imageAspect=0;aspect=fixed;verticalLabelPosition=bottom;verticalAlign=top;image=https://cdn-icons-png.flaticon.com/128/2550/2550264.png;imageBackground=none;imageBorder=none;" parent="1" vertex="1">
          <mxGeometry x="576" y="518" width="14" height="14" as="geometry" />
        </mxCell>
        <mxCell id="RW8DqHCZGsKvPGLtk2YZ-26" value="" style="shape=image;imageAspect=0;aspect=fixed;verticalLabelPosition=bottom;verticalAlign=top;image=https://cdn-icons-png.flaticon.com/128/13446/13446270.png;" parent="1" vertex="1">
          <mxGeometry x="547.5" y="476" width="18" height="18" as="geometry" />
        </mxCell>
        <mxCell id="RW8DqHCZGsKvPGLtk2YZ-13" value="NumPy Statistical Generator" style="rounded=1;whiteSpace=wrap;html=1;fillColor=#cce5ff;strokeColor=#36393d;" parent="1" vertex="1">
          <mxGeometry x="750" y="1090" width="120" height="60" as="geometry" />
        </mxCell>
        <mxCell id="RW8DqHCZGsKvPGLtk2YZ-14" value="TimeGAN (Fine-tuned)" style="rounded=1;whiteSpace=wrap;html=1;fillColor=#cce5ff;strokeColor=#36393d;" parent="1" vertex="1">
          <mxGeometry x="885" y="1090" width="120" height="60" as="geometry" />
        </mxCell>
        <mxCell id="RW8DqHCZGsKvPGLtk2YZ-12" value="Synthetic Data Generator" style="text;html=1;align=center;verticalAlign=middle;whiteSpace=wrap;rounded=0;fillColor=none;" parent="1" vertex="1">
          <mxGeometry x="795" y="1030" width="170" height="30" as="geometry" />
        </mxCell>
        <mxCell id="RW8DqHCZGsKvPGLtk2YZ-29" value="Knowledge Based&lt;div&gt;Pinecone&lt;div&gt;(AWS Cloud)&lt;/div&gt;&lt;/div&gt;" style="ellipse;shape=cloud;whiteSpace=wrap;html=1;" parent="1" vertex="1">
          <mxGeometry x="500" y="760" width="180" height="100" as="geometry" />
        </mxCell>
        <mxCell id="d9PGiMg5b-V4DYpUVLYR-1" value="&lt;font&gt;Synthetic Data Generation&lt;/font&gt;" style="text;html=1;align=center;verticalAlign=middle;whiteSpace=wrap;rounded=0;fontSize=26;" vertex="1" parent="1">
          <mxGeometry x="725" y="380" width="310" height="30" as="geometry" />
        </mxCell>
        <mxCell id="d9PGiMg5b-V4DYpUVLYR-2" value="" style="shape=image;imageAspect=0;aspect=fixed;verticalLabelPosition=bottom;verticalAlign=top;image=https://cdn-icons-png.flaticon.com/128/2068/2068998.png;" vertex="1" parent="1">
          <mxGeometry x="800" y="512" width="20" height="20" as="geometry" />
        </mxCell>
        <mxCell id="d9PGiMg5b-V4DYpUVLYR-4" value="" style="shape=image;imageAspect=0;aspect=fixed;verticalLabelPosition=bottom;verticalAlign=top;image=https://cdn-icons-png.flaticon.com/128/2103/2103533.png;" vertex="1" parent="1">
          <mxGeometry x="782" y="1030" width="28" height="28" as="geometry" />
        </mxCell>
      </root>
    </mxGraphModel>
  </diagram>
</mxfile>
